<svg id="visual" viewBox="0 0 1920 1080" width="1920" height="1080" xmlns="http://www.w3.org/2000/svg" xmlns:xlink="http://www.w3.org/1999/xlink" version="1.1"><rect x="0" y="0" width="1920" height="1080" fill="#ffffff"></rect><path d="M0 856L274 661L549 803L823 728L1097 856L1371 784L1646 773L1920 829L1920 1081L1646 1081L1371 1081L1097 1081L823 1081L549 1081L274 1081L0 1081Z" fill="#3e1956"></path><path d="M0 884L274 802L549 807L823 897L1097 805L1371 749L1646 822L1920 739L1920 1081L1646 1081L1371 1081L1097 1081L823 1081L549 1081L274 1081L0 1081Z" fill="#5d3c70"></path><path d="M0 911L274 925L549 840L823 794L1097 864L1371 868L1646 896L1920 826L1920 1081L1646 1081L1371 1081L1097 1081L823 1081L549 1081L274 1081L0 1081Z" fill="#7c608b"></path><path d="M0 955L274 907L549 849L823 928L1097 849L1371 927L1646 937L1920 879L1920 1081L1646 1081L1371 1081L1097 1081L823 1081L549 1081L274 1081L0 1081Z" fill="#9c85a7"></path><path d="M0 939L274 959L549 944L823 958L1097 913L1371 994L1646 930L1920 871L1920 1081L1646 1081L1371 1081L1097 1081L823 1081L549 1081L274 1081L0 1081Z" fill="#bcacc4"></path><path d="M0 957L274 926L549 968L823 1016L1097 946L1371 1029L1646 924L1920 1027L1920 1081L1646 1081L1371 1081L1097 1081L823 1081L549 1081L274 1081L0 1081Z" fill="#ddd5e1"></path><path d="M0 1011L274 1042L549 994L823 1025L1097 1019L1371 979L1646 1010L1920 1061L1920 1081L1646 1081L1371 1081L1097 1081L823 1081L549 1081L274 1081L0 1081Z" fill="#ffffff"></path></svg>