<svg version="1.1" xmlns:xlink="http://www.w3.org/1999/xlink" xmlns="http://www.w3.org/2000/svg" viewBox="0 334.8 896.4 266.4" id="visual" style="max-height: 500px" width="896.4" height="266.4"><path fill="#f6f6f6" d="M0 432L113 446L225 420L338 371L450 345L563 425L675 460L788 332L900 357L900 601L788 601L675 601L563 601L450 601L338 601L225 601L113 601L0 601Z"/><path fill="#c2c2c2" d="M0 437L113 374L225 476L338 463L450 440L563 399L675 455L788 421L900 426L900 601L788 601L675 601L563 601L450 601L338 601L225 601L113 601L0 601Z"/><path fill="#919191" d="M0 464L113 450L225 437L338 513L450 438L563 507L675 493L788 489L900 522L900 601L788 601L675 601L563 601L450 601L338 601L225 601L113 601L0 601Z"/><path fill="#626262" d="M0 483L113 475L225 472L338 471L450 532L563 513L675 476L788 466L900 502L900 601L788 601L675 601L563 601L450 601L338 601L225 601L113 601L0 601Z"/><path fill="#383838" d="M0 524L113 531L225 522L338 534L450 509L563 497L675 550L788 487L900 533L900 601L788 601L675 601L563 601L450 601L338 601L225 601L113 601L0 601Z"/><path fill="#111111" d="M0 576L113 553L225 546L338 581L450 574L563 550L675 543L788 574L900 543L900 601L788 601L675 601L563 601L450 601L338 601L225 601L113 601L0 601Z"/></svg>